<svg width="70" height="24" viewBox="0 0 70 24" fill="none" xmlns="http://www.w3.org/2000/svg">
<g id="Frame" clip-path="url(#clip0_168_1425)">
<g id="Group">
<g id="Group_2">
<path id="Vector" d="M3.40389 4.74419H16.8593V8.97484H20.2632V1.3834H11.8535V0.118164H8.44966V1.3834H0V8.97484H3.40389V4.74419Z" fill="#333333"/>
<path id="Vector_2" d="M16.2185 7.31442V5.61426H4.32495V8.97505H12.1739C11.7334 9.44951 11.0927 9.72628 10.3719 9.72628H6.52747L6.00688 10.4775C5.08582 11.8614 3.52404 12.6917 1.84212 12.6917H0.120149V16.0525H1.84212C4.365 16.0525 6.68765 14.9454 8.28948 13.0871H9.49086V13.4429C7.48857 15.8548 4.48514 17.2386 1.32152 17.2782H0.0801029L0.120149 20.639H1.36157C4.28491 20.5994 7.08811 19.69 9.45081 18.069C9.13045 19.5319 7.80894 20.639 6.20711 20.639V23.9998C9.89132 23.9998 12.9348 21.0344 12.9348 17.3573V12.5335C14.897 11.5846 16.2185 9.60767 16.2185 7.31442Z" fill="#333333"/>
<path id="Vector_3" d="M17.3398 16.2892V15.5379C19.1018 14.4309 20.2631 12.4935 20.2631 10.2793H16.8592C16.8592 11.8608 15.5377 13.1656 13.9359 13.1656V16.5264C14.056 20.0058 16.9794 22.8131 20.5434 22.8131V19.4523C18.7814 19.4523 17.3398 18.0289 17.3398 16.2892Z" fill="#333333"/>
</g>
<g id="Group_3">
<path id="Vector_4" d="M40.0458 7.94683C40.0458 8.61899 39.405 9.17253 38.6041 9.17253V12.5333C41.2872 12.5333 43.4897 10.4773 43.4897 7.94683V3.47895V1.81833V0.118164H26.1899V3.47895H40.0458V7.94683Z" fill="#333333"/>
<path id="Vector_5" d="M35.921 15.4987V11.1494H32.5171V16.4871C32.5171 18.7804 30.635 20.6387 28.3123 20.6387H26.1499V23.9995H28.3123C30.8352 23.9995 33.0778 22.7738 34.4794 20.8759C36.0412 22.7738 38.4439 23.9995 41.127 23.9995H43.2494V20.6387H41.127C38.2437 20.6387 35.921 18.3455 35.921 15.4987Z" fill="#333333"/>
<path id="Vector_6" d="M38.6041 4.74414H29.7139V8.10493H38.6041V4.74414Z" fill="#333333"/>
<g id="Group_4">
<path id="Vector_7" d="M29.794 15.4983C29.794 14.2331 28.7528 13.2051 27.4714 13.2051C26.1899 13.2051 25.1487 14.2331 25.1487 15.4983C25.1487 16.7636 26.1899 17.7916 27.4714 17.7916C28.7528 17.7916 29.794 16.7636 29.794 15.4983Z" fill="#333333"/>
<path id="Vector_8" d="M41.9279 13.2051C40.6465 13.2051 39.6053 14.2331 39.6053 15.4983C39.6053 16.7636 40.6465 17.7916 41.9279 17.7916C43.2094 17.7916 44.2506 16.7636 44.2506 15.4983C44.2506 14.2331 43.2094 13.2051 41.9279 13.2051Z" fill="#333333"/>
</g>
</g>
<g id="Group_5">
<path id="Vector_9" d="M54.3822 10.9918V4.82372H62.5915L63.5126 9.96376C63.5927 10.3987 63.7128 10.7941 63.833 11.1895C63.4325 11.2685 63.0721 11.3476 62.6316 11.3476H62.0709V14.7084H62.6316C63.5927 14.7084 64.5137 14.5502 65.3547 14.2735C66.1156 15.3015 67.0767 16.2109 68.1579 16.883L70 14.0362C69.3593 13.6409 68.7586 13.0873 68.278 12.5338C68.7586 12.0988 69.2391 11.5848 69.5996 10.9918L66.7563 9.13344L65.9954 4.82372H69.3593V1.46293H65.3947L65.1545 0L61.7906 0.593081L61.9508 1.46293H50.9382V10.9522C50.9382 11.7825 50.2574 12.4547 49.4165 12.4547V15.8155C52.1796 15.855 54.3822 13.6804 54.3822 10.9918Z" fill="#333333"/>
<path id="Vector_10" d="M56.5847 16.3691L53.341 17.3971C54.6224 21.351 58.3467 24.0001 62.5515 24.0001H64.0332V20.6393H62.5515C59.8284 20.6393 57.4256 18.9392 56.5847 16.3691Z" fill="#333333"/>
<path id="Vector_11" d="M55.7037 12.8893H61.0297V8.61911L58.3467 6.91895L55.7037 8.61911V12.8893Z" fill="#333333"/>
<path id="Vector_12" d="M52.1098 23.9734C53.376 23.7705 54.2359 22.5926 54.0304 21.3424C53.8249 20.0922 52.6318 19.2432 51.3656 19.4461C50.0994 19.649 49.2395 20.827 49.445 22.0771C49.6505 23.3273 50.8436 24.1763 52.1098 23.9734Z" fill="#333333"/>
<path id="Vector_13" d="M67.4371 19.4531C66.1556 19.4531 65.1144 20.4811 65.1144 21.7464C65.1144 23.0116 66.1556 24.0396 67.4371 24.0396C68.7185 24.0396 69.7597 23.0116 69.7597 21.7464C69.7597 20.4811 68.7185 19.4531 67.4371 19.4531Z" fill="#333333"/>
</g>
</g>
</g>
<defs>
<clipPath id="clip0_168_1425">
<rect width="70" height="24" fill="white"/>
</clipPath>
</defs>
</svg>
